# Blender 4.5.3 LTS
# www.blender.org
mtllib towels2.mtl
o toewels
v -0.225728 -0.058356 0.264709
v 0.225728 -0.058356 0.264709
v -0.225728 -0.058356 -0.264709
v 0.225728 -0.058356 -0.264709
v -0.225728 0.016117 0.264709
v 0.225728 0.021664 0.264709
v -0.225728 0.016117 -0.264709
v 0.225728 0.021664 -0.264709
v -0.221766 0.021664 0.264709
v -0.221766 0.021664 -0.264709
v -0.223967 0.021048 0.264709
v -0.225288 0.019199 0.264709
v -0.225288 0.019199 -0.264709
v -0.223967 0.021048 -0.264709
v -0.240725 0.022890 0.282296
v 0.240725 0.022890 0.282296
v -0.240725 0.022890 -0.282296
v 0.240725 0.022890 -0.282296
v -0.240725 0.058356 0.282296
v 0.240725 0.058356 0.282296
v -0.240725 0.058356 -0.282296
v 0.240725 0.058356 -0.282296
vn -0.0000 -1.0000 -0.0000
vn -0.1373 0.9905 -0.0000
vn -0.0000 1.0000 -0.0000
vn -0.0000 -0.0000 1.0000
vn 1.0000 -0.0000 -0.0000
vn -0.0000 -0.0000 -1.0000
vn -1.0000 -0.0000 -0.0000
vn -0.9975 0.0706 -0.0000
vn -0.2696 0.9630 -0.0000
vn -0.8137 0.5812 -0.0000
vn -0.9899 0.1414 -0.0000
vt 1.078978 2.003208
vt -0.078979 2.003208
vt -0.078978 0.066792
vt 1.078979 0.066792
vt -0.078978 1.986213
vt -0.078979 0.066792
vt 1.078978 0.066792
vt 1.078979 1.986212
vt 0.500000 2.003208
vt 0.500000 0.066792
vt 0.725032 0.066792
vt 0.725032 1.986213
vt 0.723298 1.995655
vt 0.718099 2.001320
vt 0.709432 2.003208
vt 0.500000 -0.163486
vt 0.500000 2.233485
vt 0.274968 2.233485
vt 0.274968 -0.163486
vt 0.500000 2.003208
vt 0.290568 2.003208
vt 0.281901 2.001320
vt 0.276702 1.995654
vt 0.274968 1.986212
vt 0.500000 0.066792
vt 0.274968 0.066792
vt 0.500000 2.233485
vt 0.500000 -0.163485
vt 0.709432 -0.163485
vt 0.709432 2.233485
vt -0.078978 1.995655
vt 1.078979 1.995654
vt -0.078978 2.001320
vt 1.078979 2.001320
vt 0.718099 -0.163485
vt 0.718099 2.233485
vt 1.000000 0.000000
vt 1.000000 1.500000
vt 0.000000 1.500000
vt 0.000000 0.000000
vt 0.000000 0.000000
vt 1.000000 0.000000
vt 1.000000 1.500000
vt 0.000000 1.500000
vt 0.000000 0.722386
vt 1.000000 0.722386
vt 1.000000 0.777614
vt 0.000000 0.777614
vt 0.000000 0.722386
vt 1.000000 0.722386
vt 1.000000 0.777614
vt 0.000000 0.777614
s 1
usemtl Material_#4
f 1/1/1 3/2/1 4/3/1
f 4/3/1 2/4/1 1/1/1
f 9/5/2 6/6/3 8/7/3
f 8/7/3 10/8/2 9/5/2
f 1/9/4 2/10/4 6/11/4
f 6/11/4 9/12/4 11/13/4
f 6/11/4 11/13/4 12/14/4
f 6/11/4 12/14/4 5/15/4
f 1/9/4 6/11/4 5/15/4
f 2/16/5 4/17/5 8/18/5
f 8/18/5 6/19/5 2/16/5
f 3/20/6 7/21/6 13/22/6
f 3/20/6 13/22/6 14/23/6
f 3/20/6 14/23/6 10/24/6
f 4/25/6 3/20/6 10/24/6
f 4/25/6 10/24/6 8/26/6
f 3/27/7 1/28/7 5/29/8
f 5/29/8 7/30/8 3/27/7
f 11/31/9 9/5/2 10/8/2
f 10/8/2 14/32/9 11/31/9
f 12/33/10 11/31/10 14/32/10
f 14/32/10 13/34/10 12/33/10
f 5/29/8 12/35/11 13/36/11
f 13/36/11 7/30/8 5/29/8
f 15/37/1 17/38/1 18/39/1
f 18/39/1 16/40/1 15/37/1
f 19/41/3 20/42/3 22/43/3
f 22/43/3 21/44/3 19/41/3
f 15/45/4 16/46/4 20/47/4
f 20/47/4 19/48/4 15/45/4
f 16/49/5 18/50/5 22/51/5
f 22/51/5 20/52/5 16/49/5
f 18/49/6 17/46/6 21/47/6
f 21/47/6 22/52/6 18/49/6
f 17/49/7 15/50/7 19/51/7
f 19/51/7 21/52/7 17/49/7
