# Blender 4.5.3 LTS
# www.blender.org
mtllib r_wing_flap.mtl
o R_Wing_Flap
v 1.412371 0.217580 -0.929518
v 1.412371 0.297580 -0.929518
v 1.427598 0.217580 -0.777965
v 1.427598 0.297580 -0.777965
v 4.624364 0.217580 -0.929518
v 4.624364 0.297580 -0.929518
v 4.674648 0.217580 -0.777965
v 4.674648 0.297580 -0.777965
vn -0.9950 -0.0000 0.1000
vn -0.0000 -0.0000 1.0000
vn 0.9491 -0.0000 -0.3149
vn -0.0000 -0.0000 -1.0000
vn -0.0000 -1.0000 -0.0000
vn -0.0000 1.0000 -0.0000
vt 0.375000 0.000000
vt 0.375000 0.250000
vt 0.625000 0.250000
vt 0.625000 0.000000
vt 0.375000 0.500000
vt 0.625000 0.500000
vt 0.375000 0.750000
vt 0.625000 0.750000
vt 0.375000 1.000000
vt 0.625000 1.000000
vt 0.125000 0.500000
vt 0.125000 0.750000
vt 0.875000 0.750000
vt 0.875000 0.500000
s 0
usemtl flap
f 1/1/1 3/2/1 4/3/1 2/4/1
f 3/2/2 7/5/2 8/6/2 4/3/2
f 7/5/3 5/7/3 6/8/3 8/6/3
f 5/7/4 1/9/4 2/10/4 6/8/4
f 3/11/5 1/12/5 5/7/5 7/5/5
f 8/6/6 6/8/6 2/13/6 4/14/6
